<?xml version="1.0" encoding="UTF-8"?>
<svg id="Layer_2" data-name="Layer 2" xmlns="http://www.w3.org/2000/svg" viewBox="0 0 202.17 202.34">
  <defs>
    <style>
      .cls-1 {
        fill: #fff;
      }

      .cls-2 {
        fill: #2e5baa;
      }
    </style>
  </defs>
  <g id="Layer_1-2" data-name="Layer 1">
    <path class="cls-2" d="M202.17,0v202.34H0V0h202.17ZM23.03,176.34c2.05-2.66,34.84-20.76,61.06-24.19s51.06-6.85,49.37-11.96c1.79-8.51-43.97-14.04-45.92-23.17-1.65-9.05,15.88-9.28,15.88-12.94s-.07-74.76-.07-74.76h-3.92l-.52,64.47L23.03,176.34ZM179.15,176.34s-70.91-81.93-71.85-82.53c0,2.91-.07,9.66-.07,11.79.29,4.7-18.13,6.41-13.37,11.13,3.76,3.33,41.36,10.36,48.99,21.07,7.67,10.75-8.25,17.2-15.93,19.99-19.58,7.12-23.67,7.34-41.85,18.55h94.08ZM151.92,32.49c-4.17.29-9.64,1.29-13.71,1.09-10.29-.5-15.29-8.82-30.81-.31v27.56c14.85-5.62,29.62,5.82,44.53,0,.3-1.16-.49-1.34-1.01-2.02-1.69-2.2-11.52-9.09-11.07-11.71,1.12-1.21,13.36-13.47,12.07-14.6Z"/>
    <circle class="cls-1" cx="101.23" cy="28.76" r="3.22"/>
    <path class="cls-1" d="M151.86,32.6c-4.17.29-9.64,1.29-13.71,1.09-10.29-.5-15.29-8.82-30.81-.31v27.56c14.85-5.62,29.62,5.82,44.53,0,.3-1.16-.49-1.34-1.01-2.02-1.69-2.2-11.52-9.09-11.07-11.71,1.12-1.21,13.36-13.47,12.07-14.6Z"/>
    <path class="cls-1" d="M23.11,176.41c2.05-2.66,34.84-20.76,61.06-24.19s51.06-6.85,49.37-11.96c1.79-8.51-43.97-14.04-45.92-23.17-1.65-9.05,15.88-9.28,15.88-12.94s-.07-74.76-.07-74.76h-3.92l-.52,64.47L23.11,176.41Z"/>
    <path class="cls-1" d="M179.05,176.5s-70.91-81.93-71.85-82.53c0,2.91-.07,9.66-.07,11.79.29,4.7-18.13,6.41-13.37,11.13,3.76,3.33,41.36,10.36,48.99,21.07,7.67,10.75-8.25,17.2-15.93,19.99-19.58,7.12-23.67,7.34-41.85,18.55h94.08Z"/>
  </g>
</svg>